<?xml version="1.0" encoding="utf-8"?>
<!-- Generator: Adobe Illustrator 23.0.0, SVG Export Plug-In . SVG Version: 6.00 Build 0)  -->
<svg version="1.1" id="레이어_1" xmlns="http://www.w3.org/2000/svg" xmlns:xlink="http://www.w3.org/1999/xlink" x="0px"
	 y="0px" viewBox="0 0 29.4 26.8" style="enable-background:new 0 0 29.4 26.8;" xml:space="preserve">
<style type="text/css">
	.st0{clip-path:url(#SVGID_2_);fill:#0F1936;}
	.st1{opacity:0.19;clip-path:url(#SVGID_2_);}
	.st2{fill-rule:evenodd;clip-rule:evenodd;fill:#FFFFFF;}
	.st3{fill:#FFFFFF;}
	.st4{fill:#0F1936;}
	.st5{opacity:0.56;}
	.st6{opacity:0.14;fill:#FFFFFF;}
	.st7{fill:#C3C4C4;}
	.st8{clip-path:url(#SVGID_4_);fill:#E4E4E5;}
	.st9{clip-path:url(#SVGID_4_);fill:#0F1936;}
	.st10{fill:#F2F2F3;}
	.st11{fill:#E72922;}
	.st12{fill:none;stroke:#FFFFFF;stroke-width:3;stroke-miterlimit:10;}
	.st13{opacity:0.41;fill:#137A77;}
	.st14{clip-path:url(#SVGID_6_);fill:#E4E4E5;}
	.st15{clip-path:url(#SVGID_6_);fill:#0F1936;}
	.st16{clip-path:url(#SVGID_8_);fill:#E4E4E5;}
	.st17{clip-path:url(#SVGID_8_);fill:#0F1936;}
	.st18{clip-path:url(#SVGID_10_);fill:#E4E4E5;}
	.st19{clip-path:url(#SVGID_10_);fill:#0F1936;}
	.st20{clip-path:url(#SVGID_12_);fill:#E4E4E5;}
	.st21{clip-path:url(#SVGID_12_);fill:#0F1936;}
	.st22{clip-path:url(#SVGID_14_);fill:#E4E4E5;}
	.st23{clip-path:url(#SVGID_14_);fill:#0F1936;}
	.st24{clip-path:url(#SVGID_16_);fill:#E4E4E5;}
	.st25{clip-path:url(#SVGID_16_);fill:#0F1936;}
	.st26{clip-path:url(#SVGID_18_);fill:#E4E4E5;}
	.st27{clip-path:url(#SVGID_18_);fill:#0F1936;}
	.st28{clip-path:url(#SVGID_20_);fill:#E4E4E5;}
	.st29{clip-path:url(#SVGID_20_);fill:#0F1936;}
	.st30{clip-path:url(#SVGID_22_);fill:#E4E4E5;}
	.st31{clip-path:url(#SVGID_22_);fill:#0F1936;}
</style>
<g>
	<path class="st11" d="M14.6,26.8c-0.4,0-0.8-0.1-1-0.2c-0.3-0.1-0.5-0.4-0.7-0.6c-0.2-0.3-0.4-0.6-0.7-1c-0.2-0.4-0.5-0.9-0.9-1.4
		c-0.8-1.2-1.6-2.2-2.5-3c-0.9-0.8-1.8-1.6-2.7-2.4c-0.9-0.7-1.7-1.5-2.5-2.3s-1.5-1.6-2-2.6c-0.5-0.9-0.9-1.9-1.3-2.9
		C0.1,9.4,0,8.4,0,7.3c0-0.9,0.1-1.9,0.5-2.7c0.3-0.9,0.7-1.7,1.3-2.3C2.4,1.6,3.1,1,4,0.6C4.9,0.2,6,0,7.2,0c0.8,0,1.6,0.1,2.3,0.4
		C10.3,0.6,11,1,11.7,1.4c0.7,0.5,1.3,1,1.8,1.6c0.5,0.6,0.9,1.3,1.2,2.1C15,4.4,15.5,3.7,16,3.1c0.5-0.6,1.1-1.2,1.8-1.6
		c0.7-0.5,1.4-0.8,2.2-1.1C20.7,0.1,21.5,0,22.2,0c1.3,0,2.3,0.2,3.2,0.6c0.9,0.4,1.6,1,2.2,1.7c0.6,0.7,1,1.5,1.3,2.3
		c0.3,0.9,0.4,1.8,0.4,2.6c0,1-0.2,2.1-0.5,3.1c-0.3,1-0.7,2-1.2,2.9c-0.6,1.1-1.3,2-2.1,2.8c-0.8,0.8-1.7,1.5-2.6,2.2
		c-0.9,0.7-1.8,1.5-2.6,2.3c-0.9,0.8-1.6,1.8-2.3,2.9c-0.3,0.5-0.6,1-0.8,1.4c-0.2,0.4-0.4,0.8-0.6,1.1c-0.2,0.3-0.5,0.5-0.8,0.6
		C15.5,26.8,15.1,26.8,14.6,26.8z"/>
</g>
</svg>
