<?xml version="1.0" encoding="utf-8"?>
<!-- Generator: Adobe Illustrator 23.0.0, SVG Export Plug-In . SVG Version: 6.00 Build 0)  -->
<svg version="1.1" xmlns="http://www.w3.org/2000/svg" xmlns:xlink="http://www.w3.org/1999/xlink" x="0px" y="0px"
	 viewBox="0 0 594.3 325.6" style="enable-background:new 0 0 594.3 325.6;" xml:space="preserve">
<style type="text/css">
	.st0{fill:#1D0804;}
	.st1{fill:#231815;}
	.st2{clip-path:url(#SVGID_2_);fill:#7697CC;}
	.st3{clip-path:url(#SVGID_2_);}
	.st4{fill:#A0D2DB;}
	.st5{fill:#F6BA99;}
	.st6{fill:#E5BA6E;}
	.st7{opacity:0.34;fill:url(#SVGID_3_);}
	.st8{fill:#FCD588;}
	.st9{fill:#B5B5B5;}
	.st10{fill:#00143A;}
	.st11{opacity:0.33;}
	.st12{fill:#F2957E;}
	.st13{opacity:0.15;fill:#00143A;}
	.st14{fill:none;stroke:#F8C1C5;stroke-miterlimit:10;}
	.st15{fill:#EAB860;}
	.st16{opacity:0.57;}
	.st17{clip-path:url(#SVGID_5_);}
	.st18{fill:#7697CC;}
	.st19{fill:#686767;}
</style>
<g id="Objects">
	<g>
		<polygon class="st0" points="473.7,261.4 484.9,307.9 478.9,307.9 451.1,261.7 		"/>
		<path class="st1" d="M81.6,127.3c0,0-27.1-36.1-56.1-10c-29.1,26.1,20.1,36.1,23.1,78.2c3,42.1,12,66.2,72.2,66.2
			c60.2,0,192.5,0,192.5,0l11.9-243.9c0,0-208.4-2.8-223.4,15.3C86.6,51.1,77.6,79.2,81.6,127.3z"/>
		<g>
			<defs>
				<path id="SVGID_1_" d="M120.9,67.9l-6,26.7L226,120.8l61.2,9.8c0,0-20.5-36.9-35.6-40.8C236.6,86,120.9,67.9,120.9,67.9"/>
			</defs>
			<clipPath id="SVGID_2_">
				<use xlink:href="#SVGID_1_"  style="overflow:visible;"/>
			</clipPath>
			<path class="st2" d="M120.9,67.9l-6,26.7L226,120.8l61.2,9.8c0,0-20.5-36.9-35.6-40.8C236.6,86,120.9,67.9,120.9,67.9"/>
			<g class="st3">
				<path class="st4" d="M120.8,106.4c-0.7-0.1,0.3-9.5,2.9-20.9c2.5-11.4,5.6-20.3,6.2-20.1c0.7,0.2-1.3,9.4-3.8,20.7
					C123.5,97.3,121.4,106.5,120.8,106.4z"/>
			</g>
			<g class="st3">
				<path class="st4" d="M135.1,108.2c-0.7-0.1,0.1-9.9,2.4-21.9c2.2-12,5-21.4,5.7-21.3c0.7,0.2-1.1,9.8-3.3,21.7
					C137.7,98.6,135.8,108.3,135.1,108.2z"/>
			</g>
			<g class="st3">
				<path class="st4" d="M154.6,109.9c-0.7,0-0.6-8.9,1.2-19.7c1.8-10.8,4.6-19.2,5.2-19c0.7,0.2-1,8.8-2.8,19.4
					C156.5,101.3,155.3,110,154.6,109.9z"/>
			</g>
			<g class="st3">
				<path class="st4" d="M170.2,116.8c-0.6,0-0.6-10.6,2.1-23.4c2.6-12.8,6.9-22.5,7.5-22.2c0.7,0.2-2.5,10.2-5.1,22.7
					C172,106.5,170.9,116.9,170.2,116.8z"/>
			</g>
			<g class="st3">
				<path class="st4" d="M188.2,117.2c-0.7-0.2,1.4-9.9,4.5-21.7c3.2-11.8,6.3-21.3,6.9-21.1c0.7,0.2-1.4,9.9-4.5,21.7
					C192,107.9,188.9,117.4,188.2,117.2z"/>
			</g>
			<g class="st3">
				<path class="st4" d="M206.2,120c-0.7-0.3,2.8-9.3,6.1-20.7c3.3-11.4,5.3-20.9,6-20.7c0.6,0.1-0.3,9.9-3.7,21.4
					C211.3,111.5,206.8,120.3,206.2,120z"/>
			</g>
		</g>
		<path class="st1" d="M512.7,127.3c0,0,27.1-36.1,56.1-10c29.1,26.1-20.1,36.1-23.1,78.2c-3,42.1-12,66.2-72.2,66.2
			c-60.2,0-192.5,0-192.5,0l-7.8-243.8c0,0,204.3-2.9,219.3,15.2C507.6,51.1,516.7,79.2,512.7,127.3z"/>
		<path class="st5" d="M422.2,164.1c0,0-3.9-86.3,15.1-91.8c18.4-5.3,59.8,31.1,59.8,31.1l-15.8,20.4c0,0-27.7-26.1-31.6-20.4
			c-3.9,5.7-0.7,56.4-0.7,56.4L422.2,164.1z"/>
		<polygon class="st6" points="421.3,160.7 421.3,141.6 448.2,141 448.7,157.3 433.8,166.3 		"/>
		<linearGradient id="SVGID_3_" gradientUnits="userSpaceOnUse" x1="284.8141" y1="169.0888" x2="376.7859" y2="116.8887">
			<stop  offset="0" style="stop-color:#FFFFFF"/>
			<stop  offset="1" style="stop-color:#FFFFFF;stop-opacity:0"/>
		</linearGradient>
		<polygon class="st7" points="300.7,113.7 369.7,73.2 417.1,141.7 320.9,169.5 		"/>
		<polygon class="st0" points="110.7,261.4 99.5,307.9 105.5,307.9 133.4,261.7 		"/>
		<path class="st8" d="M308.9,168.1c0.1-1.6-11.8,60.2-11.8,60.2s169.8,13.4,176.4-66.6l-23.3-9.9c0,0-12,4.5-42.7,11.9
			c-9.1,2.2-24.9,6.6-36.9,7.2C326.2,173,308.9,169,308.9,168.1z"/>
		<polygon class="st9" points="297.1,109.7 320.2,173.2 391.9,151.9 391.3,150.5 321.5,169.5 299.5,108.8 		"/>
		<path class="st5" d="M121.1,71.5c0,0,0.9-23.8-2.2-19.1c-3,4.7-10.4,41.4-10.4,41.4l6.8,0.7L121.1,71.5z"/>
		<g>
			<path class="st5" d="M448.5,155.6c1.8-2.1,6.9-12.3,6.9-12.3s-8.2-6.4-3.3-15.5c4.9-9.1,18.1-28.9,18.1-28.9l20.9,2.2l9.3,24.4
				l-30,42L448.5,155.6z"/>
			<path class="st10" d="M494.8,131.5c0,0-13.5-10.4-7.9-25l-24.6,4.7c0,0,1.3-12.6,15.6-16.2c14.3-3.6,19.1,2,22.4,4.1
				c3.2,2,17,15.4,10.4,36.6c-0.5,1.5-2.2,5-2.9,6.6L494.8,131.5z"/>
			<g class="st11">
				<path class="st12" d="M470.5,132.9c-0.6,1,0.5,2.7,2.3,3.9c1.8,1.2,3.8,1.5,4.5,0.6c0.7-1-0.3-2.9-2.2-4.1
					C473.2,131.9,471.1,131.9,470.5,132.9z"/>
			</g>
			<path class="st12" d="M455.4,143.4c0,0,5.8,3.7,14,3.3c0,0-6.6,4.8-15.2-1.1L455.4,143.4z"/>
			<path class="st10" d="M488,105.7c0,0-7.1,4.2-8.6,9.7l-16.3-5.1C463.1,110.2,471,90.5,488,105.7z"/>
			<path class="st10" d="M510.9,128.8c1.8-1.4,4-2.3,6.3-2.2c2.3,0.1,4.5,1.2,5.8,3.1c1.2,1.9,1.3,4.6-0.1,6.4
				c-1.5,2-4.5,2.6-6.9,1.8c-2.4-0.8-4.3-2.8-5.5-5"/>
			<g>
				<path class="st10" d="M504.5,130.9c-0.1-0.4,3.9-1.4,8.2-4.1c4.2-2.7,6.8-5.9,7.2-5.6c0.2,0.1-0.3,1.1-1.4,2.4
					c-1.1,1.3-2.8,3-5,4.4c-2.2,1.4-4.5,2.3-6.2,2.7C505.6,131.1,504.6,131.1,504.5,130.9z"/>
			</g>
			<g>
				<path class="st10" d="M510.3,131.1c0.2-0.1,0.7,0.4,1.3,1.5c0.6,1,1.2,2.6,1.5,4.5c0.3,1.8,0.2,3.6-0.1,4.7
					c-0.3,1.2-0.6,1.9-0.8,1.8c-0.4-0.1,0-2.9-0.5-6.3C511.3,133.8,510,131.3,510.3,131.1z"/>
			</g>
			<path class="st10" d="M508.6,140.8c0,0-10.8,21.2-30.1,14.2l16.3-23.5L508.6,140.8z"/>
		</g>
		<path class="st5" d="M346.6,174.5l1.8-4.5c0,0,0.7-2.9,2.9-7.7c0.6-1.2,1.4-2.4,2.3-3.3c1.2-1.2,2.8-2.7,3.9-3.2
			c1.4-0.7,1.3-2.7-0.1-3c-1.4-0.3-5.3,1.5-8.5,5.4c-3.2,3.9-3.2-4-3.2-6.9c0-2.9-0.5-11.8-1.4-12.5c-1.3-1-2.6,0.2-2.6,3.1
			c0.1,2.9-0.2,11.6-1.8,11.5c-1.5-0.1-1.5-14.8-1.5-14.8s0.5-3.1-1.2-3.3c-3.2-0.2-2.1,15.4-1.9,16.9c0.1,1-1.6,1-1.6-0.1
			c0-1.2,0.4-14.7-2.8-15c-2.5-0.2,0.8,12.9-0.9,15.6c-1.7,2.8-1.5-10.2-3.8-10.3c-0.9,0-1.6,0.1-0.6,7.5c1,7.6,7,27.8,7,27.8
			l14.2-3.5"/>
		<path class="st13" d="M460.1,106.5c0,0,6.9-18.5,21.8-15.1l4.1,2.7l-22.6,15.1L460.1,106.5z"/>
		<path class="st13" d="M334.3,180.8c0,0,0.1,0.4,0.2,1.1c1.4,5.8,9,33.7,30.4,39.6c23.8,6.6,43.7-5.8,43.7-5.8"/>
		<path class="st5" d="M450.6,168.5c0,0-12.7-9.8-37.4,13.2c-39.6,36.9-63.7-16.8-63.7-16.8l-19.5,0.7c0,0,6,46.7,51.2,52.5
			C432.2,224.7,450.6,168.5,450.6,168.5z"/>
		<path class="st8" d="M397.7,190.4L410,217c0,0,64.9-25.4,46-48.2C441.7,151.7,397.7,190.4,397.7,190.4z"/>
		<g>
			<path class="st15" d="M458.9,167.9c0,0,0.2,0,0.4,0c0.3,0,0.7,0.1,1.2,0.4c1,0.5,2.5,1.5,3.4,3.5c1,2,1.1,4.8,0.4,7.7
				c-0.7,3-2,6.2-4.1,9.4c-2.1,3.2-4.9,6.4-8.3,9.2c-3.5,2.9-7.5,5.4-12,7.6c-4.5,2.2-9.4,4.2-14.4,6.1c-5,1.9-10.4,4.1-16.3,4.4
				c-0.2,0-0.4,0-0.6,0l-0.5,0l-0.2-0.4c-3.8-8.1-7.5-16-10.8-23.2l0.3,0.3c-0.6-0.3-1.1-0.9-1.3-1.5c-0.2-0.6-0.3-1.3-0.2-1.9
				c0.1-0.6,0.4-1.2,0.7-1.7c0.3-0.5,0.8-0.9,1.2-1.2c0.9-0.7,1.8-1.1,2.7-1.5c0.9-0.4,1.7-0.9,2.6-1.3c3.4-1.7,6.7-3.3,9.8-4.8
				c6.2-3,11.7-5.6,16.2-7.8c4.6-2.2,8.2-3.9,10.7-5c1.2-0.6,2.2-1,2.9-1.3c0.7-0.3,1-0.4,1-0.4c0,0-0.3,0.2-0.9,0.6
				c-0.6,0.4-1.6,0.9-2.8,1.5c-2.4,1.3-6,3.1-10.5,5.4c-4.5,2.3-9.9,5-16.1,8.1c-3.1,1.5-6.4,3.2-9.8,4.9c-0.9,0.4-1.7,0.9-2.6,1.3
				c-0.9,0.4-1.7,0.9-2.5,1.4c-0.7,0.6-1.3,1.2-1.4,2c-0.1,0.8,0.2,1.7,0.8,1.9l0.2,0.1l0.1,0.2c3.4,7.2,7.1,15,10.9,23.1l-0.7-0.4
				c0.2,0,0.4,0,0.6,0c5.6-0.3,10.8-2.4,15.9-4.3c5.1-1.9,9.9-3.8,14.3-6c4.4-2.2,8.5-4.6,11.9-7.3c3.4-2.7,6.2-5.8,8.2-8.8
				c2.1-3.1,3.4-6.2,4.1-9c0.7-2.8,0.7-5.4-0.2-7.3c-0.8-1.9-2.1-3-3-3.5C459.5,168.1,458.9,168,458.9,167.9z"/>
		</g>
		<path class="st13" d="M192.2,112.8c0,0,22.5-28.2,33.7-27.9l4.6,0.8L197,114.7L192.2,112.8z"/>
		<g>
			<path class="st5" d="M155.4,182.3l-10.6,16.1c0,0-21.9-9.3-18.6-4.9c3.3,4.5,34.9,24.6,34.9,24.6s13.4-19.4,13.6-19.3
				C174.9,199.1,155.4,182.3,155.4,182.3z"/>
			<path class="st4" d="M331.7,170.5l-8.8-0.8c-17.1-23.6-70.4-93.7-93.3-83.5c-27.4,12.3-83.7,94.5-83.7,94.5l31.2,22.3
				c0,0,50.3-68,57.8-67.4c7.5,0.6,47.3,84.7,54.6,89.7c0,0-1.3,6,32.9,5.7c0,0,9.6,0.3,22.8-2.1L331.7,170.5z"/>
			<polygon class="st12" points="153.1,185.8 150.1,190.4 171.3,203.6 173.6,200.4 			"/>
			<g class="st16">
				<defs>
					<path id="SVGID_4_" class="st16" d="M331.7,170.5l-8.8-0.8c-17.1-23.6-70.4-93.7-93.3-83.5c-27.4,12.3-83.7,94.5-83.7,94.5
						l31.2,22.3c0,0,50.3-68,57.8-67.4c7.5,0.6,47.3,84.7,54.6,89.7c0,0-1.3,6,32.9,5.7c0,0,9.6,0.3,22.8-2.1L331.7,170.5z"/>
				</defs>
				<clipPath id="SVGID_5_">
					<use xlink:href="#SVGID_4_"  style="overflow:visible;"/>
				</clipPath>
				<g class="st17">
					<path class="st18" d="M250.8,239c-0.4,0.6-24.2-14.9-53.1-34.4c-29-19.6-52.1-35.9-51.8-36.5c0.4-0.6,24.2,14.9,53.1,34.5
						C228,222.1,251.2,238.5,250.8,239z"/>
				</g>
				<g class="st17">
					<path class="st18" d="M262.8,225.5c-0.4,0.6-24.2-14.9-53.1-34.4c-29-19.6-52.1-35.9-51.8-36.5c0.4-0.6,24.2,14.9,53.1,34.5
						C240,208.6,263.2,224.9,262.8,225.5z"/>
				</g>
				<g class="st17">
					<path class="st18" d="M334.3,250.3c-0.4,0.6-37.8-23.9-83.6-54.7c-45.8-30.8-82.6-56.2-82.2-56.8c0.4-0.6,37.8,23.9,83.6,54.7
						C297.9,224.3,334.7,249.7,334.3,250.3z"/>
				</g>
				<g class="st17">
					<path class="st18" d="M345.7,238c-0.4,0.6-37.8-23.9-83.6-54.7c-45.8-30.8-82.6-56.2-82.2-56.8c0.4-0.6,37.8,23.9,83.6,54.7
						C309.3,212,346.1,237.5,345.7,238z"/>
				</g>
				<g class="st17">
					<path class="st18" d="M358.8,224.9c-0.4,0.6-37.8-23.9-83.6-54.7c-45.8-30.8-82.6-56.2-82.2-56.8c0.4-0.6,37.8,23.9,83.6,54.7
						C322.4,198.9,359.2,224.3,358.8,224.9z"/>
				</g>
				<g class="st17">
					<path class="st18" d="M372.7,210.9c-0.4,0.6-38-23.7-83.9-54.1c-46-30.5-83-55.6-82.6-56.2c0.4-0.6,38,23.7,83.9,54.1
						C336.1,185.1,373,210.3,372.7,210.9z"/>
				</g>
				<g class="st17">
					<path class="st18" d="M372.7,189.4c-0.4,0.6-38-23.7-83.9-54.1c-46-30.5-83-55.6-82.6-56.2c0.4-0.6,38,23.7,83.9,54.1
						C336.1,163.6,373,188.8,372.7,189.4z"/>
				</g>
			</g>
		</g>
		<g>
			<path class="st19" d="M46.9,135.4c-0.1-0.1,0.1-0.7,1-1.6c0.9-0.8,2.6-1.7,4.8-1.6c1.1,0,2.4,0.3,3.6,1c1.2,0.7,2.2,1.9,2.8,3.4
				c0.3,0.7,0.4,1.5,0.5,2.3c0.1,0.8,0,1.6-0.2,2.4c-0.4,1.6-1.4,3.2-2.9,4.3c-1.6,1-3.4,1.4-5.1,1.1c-0.8-0.1-1.6-0.3-2.4-0.7
				c-0.7-0.3-1.4-0.8-2-1.3c-1.2-1-1.9-2.5-2.1-3.8c-0.2-1.4,0-2.6,0.4-3.7c0.8-2.1,2.3-3.3,3.4-3.8c1.1-0.5,1.8-0.4,1.8-0.3
				c0,0.2-0.5,0.4-1.3,1.1c-0.8,0.6-1.8,1.8-2.3,3.5c-0.2,0.8-0.3,1.8-0.1,2.8c0.2,0.9,0.7,1.8,1.6,2.5c1.6,1.4,4.6,1.9,6.6,0.5
				c2-1.4,2.6-4.3,1.9-6.3c-0.3-1.1-1-1.9-1.7-2.4c-0.8-0.6-1.7-0.9-2.6-1c-1.8-0.2-3.2,0.2-4.2,0.7C47.5,135,47,135.5,46.9,135.4z"
				/>
		</g>
		<g>
			<path class="st19" d="M535.5,136.4c-0.1-0.1,0.1-0.6,1-1.1c0.8-0.5,2.3-0.9,4.1-0.4c0.9,0.3,1.8,0.7,2.6,1.6
				c0.8,0.8,1.3,2.1,1.3,3.3c0,1.3-0.4,2.6-1.1,3.7c-0.8,1.1-2,2.1-3.5,2.5c-1.5,0.3-3,0-4.2-0.6c-1.2-0.7-2.1-1.6-2.7-2.8
				c-0.6-1.1-0.7-2.4-0.5-3.5c0.2-1.1,0.7-2,1.3-2.7c1.1-1.4,2.5-2,3.5-2.1c1-0.1,1.5,0.1,1.5,0.2c0,0.2-0.5,0.3-1.2,0.7
				c-0.7,0.4-1.7,1-2.4,2.2c-0.7,1.1-1,2.7-0.1,4.1c0.8,1.4,2.7,2.5,4.4,2.1c1.7-0.4,2.9-2.2,2.9-3.8c0.1-1.6-1-2.8-2.2-3.3
				c-1.2-0.5-2.4-0.5-3.1-0.3C536.1,136.3,535.6,136.6,535.5,136.4z"/>
		</g>
		<g>
			<path class="st19" d="M302.1,112.8c-0.3,0-0.8-4.6-1-12.1c-0.3-7.5-0.3-17.8,0-29.3c0.4-11.4,1.1-21.8,1.8-29.2
				c0.7-7.5,1.4-12,1.8-12c0.3,0,0.2,4.7,0,12.1c-0.3,7.5-0.7,17.8-1.1,29.2c-0.4,11.4-0.6,21.7-0.7,29.2
				C302.7,108.2,302.5,112.8,302.1,112.8z"/>
		</g>
		<g>
			<path class="st19" d="M500.3,89.7c0,0,0-0.4,0.1-1.2c0-0.4,0.1-0.9,0.2-1.4c0.1-0.6,0.1-1.2,0.1-2c0.1-3-0.2-7.4-2.2-12.7
				c-2-5.3-5.7-11.3-11.6-16.7c-3-2.7-6.5-5.1-10.5-7.2c-2-1.1-4.2-2-6.4-2.9c-2.2-0.8-4.6-1.7-7-2.4c-9.7-2.9-20.8-4.3-32.8-5.6
				c-6-0.7-12.1-1.4-18.5-2c-3.2-0.3-6.4-0.6-9.7-1c-3.3-0.3-6.6-0.6-10-0.9c-13.4-1.2-27.6-2.1-42.3-2.9
				c-7.3-0.3-14.8-0.7-22.4-0.9c-3.8-0.1-7.6-0.3-11.5-0.4c-3.8-0.1-7.7-0.2-11.6-0.3c-31.2-0.6-60.9-0.2-87.9,0.6
				c-13.5,0.4-26.3,0.9-38.3,1.5c-12,0.6-23.2,0.9-33.3,2.1c-10.1,1.2-19.1,3.3-26.5,6.4c-7.4,3.1-13.3,7-17.5,10.7
				c-4.3,3.7-6.9,7.3-8.6,9.8c-0.4,0.6-0.8,1.2-1.1,1.7c-0.3,0.5-0.5,0.9-0.7,1.2c-0.4,0.7-0.6,1-0.7,1c0,0,0.1-0.4,0.4-1.1
				c0.2-0.4,0.4-0.8,0.6-1.3c0.3-0.5,0.6-1.1,1-1.7c1.6-2.6,4.1-6.3,8.4-10.2c4.2-3.9,10.1-8,17.6-11.3c7.5-3.3,16.7-5.6,26.8-6.9
				c10.2-1.3,21.4-1.8,33.4-2.5c12-0.6,24.8-1.2,38.4-1.7c27-0.9,56.8-1.4,88-0.8c3.9,0.1,7.8,0.2,11.6,0.3
				c3.9,0.1,7.7,0.3,11.5,0.4c7.6,0.2,15.1,0.6,22.4,1c14.7,0.8,28.9,1.8,42.3,3c3.4,0.3,6.7,0.6,10,0.9c3.3,0.3,6.5,0.7,9.7,1
				c6.4,0.6,12.5,1.4,18.5,2.1c11.9,1.4,23.1,3,33,6c2.5,0.7,4.8,1.6,7.1,2.5c2.3,1,4.5,1.9,6.5,3.1c4.1,2.2,7.7,4.8,10.7,7.6
				c6,5.6,9.7,11.9,11.6,17.4c1.9,5.5,2,10.1,1.8,13.1c-0.1,0.8-0.1,1.4-0.2,2c-0.1,0.6-0.2,1-0.3,1.4
				C500.5,89.3,500.4,89.7,500.3,89.7z"/>
		</g>
		<g>
			<path class="st19" d="M153.9,220.9c-0.3,0.2-2.1-2.2-5.5-5.8c-0.4-0.4-0.9-0.9-1.3-1.4c-0.5-0.5-1-0.9-1.5-1.4
				c-1-1-2.2-1.9-3.4-3c-2.5-2-5.3-4-8.5-5.9c-3.2-1.8-6.4-3.3-9.3-4.4c-1.5-0.5-2.9-1.1-4.3-1.5c-0.7-0.2-1.3-0.4-2-0.6
				c-0.6-0.2-1.3-0.3-1.8-0.5c-4.7-1.1-7.7-1.5-7.7-1.9c0-0.3,3.1-0.6,8.1,0.2c0.6,0.1,1.3,0.2,1.9,0.3c0.7,0.1,1.4,0.3,2.1,0.5
				c1.4,0.3,2.9,0.8,4.5,1.3c3.1,1.1,6.5,2.5,9.8,4.4c3.3,1.9,6.2,4.1,8.7,6.3c1.2,1.1,2.4,2.2,3.4,3.3c0.5,0.5,1,1,1.4,1.6
				c0.4,0.5,0.8,1,1.2,1.5C152.9,217.9,154.2,220.8,153.9,220.9z"/>
		</g>
		<g>
			<path class="st19" d="M297,231.2c-0.2,0.3-2.6-1.4-6.6-3.8c-1-0.6-2.1-1.3-3.3-1.9c-1.2-0.7-2.5-1.3-3.8-2
				c-2.7-1.4-5.8-2.7-9.1-4c-3.3-1.2-6.5-2.2-9.5-3c-1.5-0.4-2.9-0.7-4.2-1c-1.3-0.3-2.6-0.5-3.7-0.7c-4.6-0.8-7.5-1.1-7.5-1.5
				c0-0.3,2.9-0.6,7.7-0.2c1.2,0.1,2.5,0.2,3.9,0.5c1.4,0.2,2.9,0.5,4.4,0.8c3.1,0.7,6.4,1.6,9.8,2.9c3.4,1.3,6.5,2.8,9.3,4.3
				c1.4,0.8,2.7,1.5,3.8,2.3c1.2,0.7,2.2,1.5,3.2,2.2C295.2,228.8,297.2,231,297,231.2z"/>
		</g>
		<g>
			<path class="st19" d="M504.4,175.8c0.3,0.6-18.5,10.7-42.1,22.5c-23.6,11.8-42.9,20.9-43.2,20.3c-0.3-0.6,18.5-10.7,42.1-22.5
				C484.7,184.3,504.1,175.2,504.4,175.8z"/>
		</g>
		<g>
			<path class="st19" d="M113.5,196.2c-0.5,0.4-7.3-8.3-13.7-20.3c-6.4-12-9.8-22.5-9.2-22.7c0.7-0.3,5,9.7,11.3,21.5
				C108.2,186.6,114.1,195.8,113.5,196.2z"/>
		</g>
		<g>
			<path class="st19" d="M237.2,216.7c0,0.3-4.7,1.3-12.5,2.3c-7.8,1.1-18.6,2.2-30.6,2.8c-12,0.7-22.8,0.8-30.7,0.6
				c-7.9-0.2-12.7-0.6-12.7-0.9c0-0.4,4.9-0.6,12.7-0.8c7.8-0.3,18.6-0.7,30.6-1.3c11.9-0.7,22.7-1.5,30.5-2.1
				C232.3,216.7,237.1,216.4,237.2,216.7z"/>
		</g>
		<polygon class="st13" points="110.7,261.4 109.2,267.9 128.5,269.7 133.4,261.7 		"/>
		<polygon class="st13" points="451.1,261.7 455.8,269.6 475.3,268 473.6,261.7 		"/>
	</g>
</g>
<g id="Designed_by_freepik">
</g>
</svg>
